<svg xmlns="http://www.w3.org/2000/svg" width="1024" height="1024" viewBox="0 0 1024 1024">
  <defs>
    <linearGradient id="bg" x1="0" y1="0" x2="1" y2="1">
      <stop offset="0" stop-color="#0b1220"/>
      <stop offset="1" stop-color="#0f2a33"/>
    </linearGradient>
    <linearGradient id="flow" x1="0" y1="0" x2="1" y2="0">
      <stop offset="0" stop-color="#2dd4bf"/>
      <stop offset="0.55" stop-color="#38bdf8"/>
      <stop offset="1" stop-color="#22c55e"/>
    </linearGradient>
    <filter id="soft" x="-20%" y="-20%" width="140%" height="140%">
      <feGaussianBlur in="SourceGraphic" stdDeviation="10" result="b"/>
      <feColorMatrix in="b" type="matrix" values="1 0 0 0 0  0 1 0 0 0  0 0 1 0 0  0 0 0 0.35 0" result="g"/>
      <feMerge>
        <feMergeNode in="g"/>
        <feMergeNode in="SourceGraphic"/>
      </feMerge>
    </filter>
  </defs>

  <rect width="1024" height="1024" rx="220" fill="url(#bg)"/>

  <!-- Flow ribbon -->
  <g filter="url(#soft)" stroke="url(#flow)" stroke-linecap="round" stroke-linejoin="round" fill="none">
    <path d="M 230 360 C 360 240, 520 240, 650 360 S 860 480, 794 590 C 740 680, 610 695, 512 640 C 410 582, 312 580, 230 650" stroke-width="92" opacity="0.98"/>
    <path d="M 260 420 C 380 310, 520 310, 620 410 S 790 510, 740 585 C 700 645, 610 652, 520 610 C 430 565, 342 570, 260 630" stroke-width="44" opacity="0.75"/>
  </g>

  <!-- InFlow monogram hint -->
  <g opacity="0.92" fill="#e6f6ff">
    <path d="M 310 760 L 310 470 L 386 470 L 386 760 Z"/>
    <path d="M 456 760 L 456 470 L 532 470 L 532 760 Z"/>
    <path d="M 456 546 C 456 498, 495 470, 542 470 L 610 470 L 610 542 L 552 542 C 537 542, 532 548, 532 560 L 532 760 L 456 760 Z"/>
  </g>
</svg>
